<svg id="Capa_1" enable-background="new 0 0 512 512" height="512" viewBox="0 0 512 512" width="512" xmlns="http://www.w3.org/2000/svg"><g><g><circle cx="401.127" cy="251.131" fill="#f2b6ad" r="36.081"/></g><g><circle cx="110.87" cy="251.131" fill="#f2b6ad" r="36.081"/></g><g><circle cx="256" cy="251.128" fill="#ffd0c6" r="145"/></g><g><path d="m161 251.128c0-71.555 51.833-130.998 120-142.846-8.122-1.412-16.474-2.154-25-2.154-80.081 0-145 64.919-145 145s64.919 145 145 145c8.526 0 16.878-.743 25-2.154-68.167-11.848-120-71.29-120-142.846z" fill="#f2b6ad"/></g><g><path d="m342.619 186.28h-172.411c-35.702 0-65.326 28.507-65.672 64.208-.35 36.05 28.875 65.49 64.845 65.49h.828c17.507 0 33.506-7.526 44.621-19.755 10.258-11.287 24.709-17.849 39.961-17.849h2.42c15.252 0 29.702 6.562 39.961 17.849 11.115 12.229 27.113 19.755 44.621 19.755 35.702 0 65.327-28.508 65.674-64.209.348-36.051-28.877-65.489-64.848-65.489z" fill="#868eaf"/></g><g><path d="m164.535 250.487c.347-35.7 29.971-64.208 65.672-64.208h-60c-35.702 0-65.326 28.507-65.672 64.208-.35 36.05 28.875 65.49 64.845 65.49h.828c10.453 0 20.359-2.7 29.018-7.466-20.783-10.966-34.935-32.88-34.691-58.024z" fill="#677293"/></g><g><path d="m316 7.5c-39.667 0-43.542 36.5-60 36.5s-20.333-36.5-60-36.5c-59.126 0-85.13 194.395-85.13 194.395s59.539 21.215 145.13 21.215 145.13-21.215 145.13-21.215-26.004-194.395-85.13-194.395z" fill="#868eaf"/></g><g><path d="m166.461 25.103c-38.341 47.856-55.591 176.792-55.591 176.792s59.539 21.215 145.13 21.215 145.13-21.215 145.13-21.215c-175.202-19.105-267.463-118.228-234.669-176.792z" fill="#677293"/></g><g><g><path d="m256 238.109c-117.225 0-186.986-33.006-189.898-34.41-9.948-4.8-14.123-16.756-9.323-26.704 4.795-9.938 16.73-14.114 26.672-9.338 1.234.581 65.685 30.452 172.549 30.452 108.177 0 171.888-30.133 172.519-30.438 9.949-4.795 21.904-.625 26.704 9.323s.625 21.904-9.323 26.704c-2.914 1.406-72.675 34.411-189.9 34.411z" fill="#b7bcce"/></g></g><g><path d="m368.344 504.5h-224.688c-10.086 0-18.594-7.511-19.846-17.519l-15.703-125.62c-1.119-8.953 5.862-16.861 14.884-16.861h266.017c9.022 0 16.003 7.908 14.884 16.861l-15.703 125.62c-1.25 10.008-9.758 17.519-19.845 17.519z" fill="#f9f5f3"/></g><g><path d="m195.861 486.981-15.703-125.62c-1.119-8.953 5.862-16.861 14.884-16.861h-72.051c-9.022 0-16.003 7.908-14.884 16.861l15.703 125.62c1.251 10.009 9.759 17.519 19.846 17.519h72.051c-10.087 0-18.595-7.511-19.846-17.519z" fill="#e7e7ef"/></g><g><circle cx="256" cy="424.5" fill="#e7e7ef" r="30"/></g><g><path d="m256 304.727c-8.478 0-16.539 3.671-22.119 10.073-2.721 3.123-2.396 7.86.727 10.582 1.421 1.239 3.177 1.846 4.925 1.846 2.093 0 4.174-.871 5.657-2.572 2.729-3.132 6.67-4.929 10.811-4.929s8.08 1.796 10.81 4.928c2.721 3.123 7.459 3.448 10.581.727 3.123-2.721 3.449-7.458.728-10.582-5.58-6.402-13.642-10.073-22.12-10.073z"/><path d="m461.977 173.736c-6.587-13.651-23.06-19.403-36.701-12.827-.214.102-7.794 3.643-21.943 8.246-5.219-28.143-13.672-66.025-25.904-98.865-17.373-46.641-38.04-70.29-61.429-70.29-27.714 0-40.753 16.173-49.381 26.875-4.163 5.165-7.759 9.625-10.619 9.625s-6.456-4.46-10.619-9.625c-8.629-10.702-21.667-26.875-49.381-26.875-23.386 0-44.051 23.644-61.423 70.275-12.226 32.819-20.678 70.68-25.898 98.819-14.157-4.585-21.782-8.104-21.981-8.197-13.646-6.557-30.096-.795-36.675 12.839-3.192 6.616-3.616 14.079-1.195 21.014s7.398 12.512 14.016 15.705c.864.417 7.499 3.558 19.375 7.802-9.297 8.091-14.931 19.948-14.931 32.874 0 23.68 18.988 42.995 42.535 43.554 4.502 15.156 11.251 29.327 20.137 42.315h-6.968c-6.451 0-12.6 2.773-16.868 7.61-4.27 4.836-6.259 11.28-5.459 17.681l8.083 64.662c.514 4.11 4.256 7.024 8.373 6.512 4.109-.514 7.025-4.262 6.512-8.372l-8.083-64.662c-.271-2.165.375-4.258 1.819-5.894s3.441-2.537 5.623-2.537h266.016c2.182 0 4.179.901 5.623 2.537s2.09 3.729 1.819 5.894l-15.703 125.62c-.78 6.242-6.112 10.95-12.402 10.95h-224.69c-6.29 0-11.622-4.708-12.402-10.95l-3.838-30.703c-.515-4.111-4.265-7.028-8.373-6.512-4.109.514-7.025 4.262-6.512 8.372l3.838 30.703c1.717 13.733 13.447 24.089 27.287 24.089h224.689c13.84 0 25.57-10.356 27.287-24.089l15.703-125.62c.8-6.4-1.189-12.845-5.459-17.681-4.269-4.836-10.417-7.61-16.868-7.61h-6.969c8.891-12.996 15.648-27.166 20.146-42.315 23.542-.566 42.523-19.878 42.523-43.554 0-12.972-5.625-24.809-14.92-32.884 12.071-4.318 18.746-7.492 19.369-7.792 6.616-3.192 11.594-8.769 14.015-15.704s1.998-14.399-1.194-21.015zm-265.977-158.736c20.539 0 29.657 11.311 37.703 21.29 6.028 7.478 12.262 15.21 22.297 15.21s16.269-7.732 22.297-15.21c8.046-9.979 17.164-21.29 37.703-21.29 27.169 0 54.953 60.58 72.884 158.509-28.995 8.094-74.392 17.1-132.884 17.1-58.207 0-103.748-9.06-132.87-17.175 17.932-97.883 45.71-158.434 72.87-158.434zm-113.712 236.131c0-12.02 7.434-22.616 18.605-26.77.396.118.794.237 1.197.356-3.233 8.152-4.968 16.9-5.054 25.698-.095 9.756 1.736 19.231 5.314 28-11.612-3.634-20.062-14.491-20.062-27.284zm66.327 85.869c-5.773-7.203-10.754-14.868-14.918-22.946 10.763 6.138 22.965 9.423 35.684 9.423h.828c19.056 0 37.342-8.095 50.17-22.21 8.892-9.783 21.435-15.394 34.411-15.394h2.42c12.977 0 25.52 5.611 34.411 15.394 12.828 14.115 31.114 22.21 50.17 22.21 13.365 0 25.922-3.609 36.743-9.87-4.209 8.24-9.272 16.053-15.153 23.393zm281.093-85.869c0 12.848-8.523 23.741-20.211 27.328 3.428-8.235 5.376-17.213 5.468-26.618.09-9.294-1.632-18.536-5.008-27.137.387-.115.771-.229 1.153-.344 11.182 4.151 18.598 14.708 18.598 26.771zm19.302-61.325c-1.101 3.152-3.362 5.688-6.369 7.138-1.396.674-34.876 16.606-93.881 26.303-4.088.672-6.856 4.53-6.185 8.617.671 4.086 4.521 6.854 8.616 6.185 16.72-2.748 31.498-6.004 44.197-9.3 3.065 7.218 4.654 15.053 4.576 22.947-.304 31.31-26.4 56.782-58.174 56.782-14.838 0-29.078-6.305-39.07-17.299-11.728-12.904-28.316-20.305-45.511-20.305h-2.42c-17.194 0-33.783 7.401-45.511 20.305-9.992 10.994-24.232 17.299-39.07 17.299h-.828c-15.396 0-29.86-6.044-40.729-17.019-10.865-10.972-16.767-25.496-16.616-40.898.074-7.619 1.644-14.929 4.628-21.808 33.026 8.546 80.312 16.857 139.337 16.857 22.007 0 43.902-1.166 65.078-3.464 4.118-.447 7.094-4.147 6.646-8.266s-4.147-7.088-8.266-6.646c-20.641 2.24-41.991 3.376-63.459 3.376-115.5 0-183.79-32.291-186.64-33.665-3.008-1.451-5.27-3.986-6.37-7.139s-.908-6.544.543-9.552c2.99-6.198 10.471-8.816 16.721-5.812 2.701 1.273 67.404 31.167 175.746 31.167 109.94 0 175.134-30.872 175.773-31.181 6.21-2.993 13.698-.38 16.693 5.826 1.453 3.007 1.645 6.399.545 9.552z"/><path d="m293.5 424.5c0-20.678-16.822-37.5-37.5-37.5s-37.5 16.822-37.5 37.5 16.822 37.5 37.5 37.5 37.5-16.822 37.5-37.5zm-60 0c0-12.407 10.094-22.5 22.5-22.5s22.5 10.093 22.5 22.5-10.094 22.5-22.5 22.5-22.5-10.093-22.5-22.5z"/></g></g></svg>