<?xml version="1.0" encoding="iso-8859-1"?>
<!-- Generator: Adobe Illustrator 19.0.0, SVG Export Plug-In . SVG Version: 6.00 Build 0)  -->
<svg xmlns="http://www.w3.org/2000/svg" xmlns:xlink="http://www.w3.org/1999/xlink" version="1.1" id="Layer_1" x="0px" y="0px" viewBox="0 0 512 512" style="enable-background:new 0 0 512 512;" xml:space="preserve" width="512" height="512">
<g>
	<g>
		<path style="fill:#D2D2D2;" d="M299.585,211.664c-3.371-23.428-8.34-46.616-15.183-69.297c-0.595-1.976-1.198-3.909-1.805-5.819    l-26.596-15.608l-26.597,15.608c-0.607,1.91-1.211,3.843-1.805,5.819c-14.48,48.095-20.753,98.576-20.789,148.733    c-0.048,67.003,10.349,136.758,39.275,197.747c2.793,5.915,5.252,10.563,7.057,13.732c0.018,0.032,0.035,0.063,0.053,0.095    c1.358,2.435,4.254,2.435,5.612,0c0.018-0.031,0.035-0.063,0.053-0.095c1.806-3.169,4.264-7.817,7.057-13.732    c28.826-61.043,39.413-130.703,39.275-197.747C305.136,264.537,303.369,237.961,299.585,211.664z"/>
		<path style="fill:#B8B8B8;" d="M210.768,224.004c-2.675,22.27-3.943,44.714-3.959,67.095c-0.004,5.371,0.067,10.762,0.202,16.163    c15.808,1.506,32.266,2.292,48.989,2.292c16.729,0,33.192-0.787,49.005-2.294c0.13-5.4,0.196-10.79,0.185-16.162    c-0.046-22.415-1.329-44.837-3.997-67.095H210.768z"/>
		<path style="fill:#C86D5C;" d="M385.696,188.809C354.947,176.378,308.27,168.454,256,168.454s-98.947,7.924-129.696,20.355    c-8.401,3.396-13.861,11.597-13.861,20.659v29.079c0,9.063,5.461,17.265,13.864,20.661    c30.749,12.424,77.424,20.347,129.692,20.347s98.943-7.924,129.692-20.347c8.403-3.395,13.864-11.597,13.864-20.661v-29.079    C399.557,200.406,394.098,192.206,385.696,188.809z"/>
		<g>
			<path style="fill:#B8B8B8;" d="M256,472.804c-49.037,0-95.341-15.561-130.382-43.816     c-36.462-29.402-56.542-68.923-56.542-111.285c0-12.475,10.113-22.588,22.588-22.588s22.588,10.112,22.588,22.588     c0,60.614,63.588,109.926,141.749,109.926s141.749-49.312,141.749-109.926c0-12.475,10.112-22.588,22.588-22.588     s22.588,10.112,22.588,22.588c0,42.362-20.081,81.883-56.542,111.285C351.34,457.243,305.037,472.804,256,472.804z"/>
		</g>
		<path style="fill:#9E9E9E;" d="M114.251,317.703c0-12.475-10.113-22.588-22.588-22.588c-12.475,0-22.588,10.113-22.588,22.588    c0,24.431,6.692,47.912,19.34,69.057l19.489-13.091l25.482-0.862C121.226,356.596,114.251,337.77,114.251,317.703z"/>
		<path style="fill:#D2D2D2;" d="M140.979,320.787L87.41,276.001c-7.034-5.881-17.797-2.402-20.057,6.484l-17.218,67.668    c-2.819,11.077,9.526,19.783,19.014,13.409l26.198-17.598c1.934-1.299,4.195-2.03,6.524-2.109l31.542-1.067    C144.835,342.403,149.748,328.119,140.979,320.787z"/>
		<path style="fill:#9E9E9E;" d="M420.336,295.115c-12.475,0-22.588,10.113-22.588,22.588c0,20.067-6.975,38.893-19.136,55.104    l25.482,0.862l19.489,13.091c12.648-21.145,19.34-44.626,19.34-69.057C442.924,305.228,432.812,295.115,420.336,295.115z"/>
		<path style="fill:#D2D2D2;" d="M371.021,320.787l53.569-44.786c7.034-5.881,17.797-2.402,20.057,6.484l17.218,67.668    c2.819,11.077-9.526,19.783-19.014,13.409l-26.198-17.598c-1.934-1.299-4.195-2.03-6.524-2.109l-31.542-1.067    C367.165,342.403,362.252,328.119,371.021,320.787z"/>
		<path style="fill:#B8B8B8;" d="M256,7.5c-37.147,0-67.261,30.114-67.261,67.261c0,37.147,30.114,67.261,67.261,67.261    s67.261-30.114,67.261-67.261C323.261,37.614,293.147,7.5,256,7.5z M256,103.874c-16.079,0-29.113-13.034-29.113-29.113    c0-16.079,13.034-29.113,29.113-29.113s29.113,13.034,29.113,29.113C285.113,90.839,272.079,103.874,256,103.874z"/>
	</g>
	<g>
		<path d="M179.954,205.376c-4.142,0-7.5,3.358-7.5,7.5v13.766c0,4.142,3.358,7.5,7.5,7.5s7.5-3.358,7.5-7.5v-13.766    C187.454,208.734,184.097,205.376,179.954,205.376z"/>
		<path d="M332.077,234.142c4.142,0,7.5-3.358,7.5-7.5v-13.766c0-4.142-3.358-7.5-7.5-7.5s-7.5,3.358-7.5,7.5v13.766    C324.577,230.784,327.934,234.142,332.077,234.142z"/>
		<path d="M256.015,241.49c9.481,0,18.381-3.962,24.42-10.87c2.726-3.119,2.408-7.857-0.711-10.583    c-3.119-2.726-7.857-2.408-10.583,0.711c-3.189,3.649-7.974,5.742-13.126,5.742s-9.937-2.093-13.126-5.742    c-2.726-3.119-7.464-3.437-10.583-0.711c-3.119,2.726-3.438,7.464-0.711,10.583C237.634,237.528,246.535,241.49,256.015,241.49z"/>
		<path d="M292.628,74.761c0-20.188-16.424-36.613-36.613-36.613s-36.613,16.424-36.613,36.613s16.424,36.613,36.613,36.613    S292.628,94.949,292.628,74.761z M234.403,74.761c0-11.917,9.695-21.613,21.613-21.613s21.613,9.696,21.613,21.613    s-9.695,21.613-21.613,21.613S234.403,86.678,234.403,74.761z"/>
		<path d="M151.875,336.832c2.714-7.89,0.331-16.447-6.07-21.799c0,0-53.56-44.778-53.569-44.786    c-11.101-9.281-28.579-3.593-32.136,10.388l-17.218,67.668c-1.533,6.026-0.254,12.257,3.507,17.096    c3.807,4.897,9.736,7.822,15.862,7.822c3.404,0,6.749-0.901,9.764-2.613c9.881,24.198,26.631,46.251,48.91,64.217    c31.066,25.05,69.928,40.352,112.639,44.404c3.91,9.178,8.085,18.308,13.031,26.981l0.063,0.114    c1.98,3.553,5.479,5.674,9.356,5.674c3.878,0,7.376-2.121,9.375-5.708c4.886-8.765,9.143-17.852,13.066-27.085    c37.419-3.565,72.408-15.957,101.439-36.021c3.408-2.355,4.261-7.026,1.906-10.434c-2.356-3.408-7.026-4.261-10.434-1.906    c-24.932,17.231-54.674,28.388-86.629,32.583c3.897-10.479,7.391-21.284,10.478-32.407c24.68-5.277,47.283-15.508,65.621-29.74    c18.059-14.015,31.219-31.308,38.339-50.294l10.716,0.363c0.837,0.028,1.826,0.323,2.594,0.839l14.779,9.927    c-7.003,18.466-18.28,35.389-33.578,50.368c-2.959,2.898-3.009,7.646-0.111,10.606c2.899,2.959,7.647,3.009,10.606,0.111    c15.993-15.661,28.016-33.317,35.849-52.586c3.01,1.707,6.35,2.605,9.749,2.605c12.844,0,22.529-12.496,19.368-24.919    c0,0-17.211-67.645-17.217-67.668c-3.551-13.957-21.075-19.636-32.137-10.388l-53.569,44.786    c-6.401,5.352-8.784,13.908-6.071,21.799c2.714,7.89,9.856,13.171,18.195,13.453l4.818,0.163    c-13.354,29.859-44.653,53.839-83.745,64.138c8.916-37.86,13.374-79.142,13.282-123.501c-0.005-2.305-0.027-4.686-0.068-7.235    c29.25-3.416,55.525-9.464,75.879-17.688c11.271-4.554,18.555-15.394,18.555-27.615v-29.079c0-12.219-7.281-23.057-18.549-27.613    c-23.756-9.604-55.585-16.244-90.802-19.187c-1.87-7.595-3.892-15.049-6.049-22.213c23.275-12.683,39.104-37.375,39.104-65.695    C330.776,33.538,297.239,0,256.015,0c-14.273,0-28.168,4.056-40.182,11.729c-3.491,2.23-4.513,6.867-2.284,10.358    c2.23,3.49,6.868,4.512,10.358,2.283c9.598-6.131,20.7-9.371,32.107-9.371c32.952,0,59.761,26.809,59.761,59.761    c0,24.704-15.068,45.955-36.496,55.045c-14.783,6.271-31.743,6.196-46.533-0.001c-21.426-9.092-36.492-30.341-36.492-55.044    c0-11.122,3.084-21.981,8.919-31.404c2.181-3.521,1.094-8.145-2.428-10.325c-3.523-2.182-8.145-1.093-10.325,2.428    c-7.305,11.797-11.166,25.387-11.166,39.301c0,28.32,15.829,53.012,39.104,65.695c-2.18,7.255-4.206,14.705-6.059,22.213    c-35.213,2.944-67.038,9.583-90.792,19.186c-11.268,4.556-18.549,15.394-18.549,27.613v29.079c0,12.221,7.283,23.06,18.555,27.615    c20.351,8.223,46.624,14.271,75.87,17.686c-0.037,2.552-0.057,4.957-0.059,7.247c-0.031,44.488,4.425,85.766,13.278,123.49    c-39.089-10.3-70.386-34.281-83.74-64.137l4.818-0.163C142.019,350.003,149.161,344.722,151.875,336.832z M374.34,331.953    c-0.333-0.97-0.854-3.438,1.507-5.412c0,0,53.45-44.687,53.569-44.786c2.768-2.314,7.092-0.907,7.979,2.579l17.217,67.668    c0.4,1.573,0.126,2.983-0.814,4.193c-1.637,2.105-4.53,2.632-6.749,1.141l-26.198-17.598c-3.084-2.072-6.74-3.244-10.452-3.378    l-31.542-1.066C375.782,335.189,374.674,332.923,374.34,331.953z M230.026,161.613c1.333-5.163,2.75-10.283,4.24-15.31    c2.118,0.645,4.269,1.183,6.435,1.636c5.026,1.052,10.179,1.583,15.314,1.583c6.307,0,12.555-0.869,18.675-2.362    c1.03-0.266,2.057-0.547,3.076-0.858c1.479,4.983,2.894,10.102,4.233,15.311c-0.199-0.01-0.399-0.017-0.598-0.027    c-8.459-0.426-16.917-0.632-25.386-0.632c-6.507,0-13.009,0.149-19.512,0.371c-0.024,0.001-0.048,0.002-0.072,0.003    C234.296,161.41,232.16,161.504,230.026,161.613z M119.959,238.547v-29.079c0-6.073,3.6-11.454,9.171-13.706    c23.578-9.532,55.823-15.982,91.578-18.554c0.045-0.002,0.09-0.002,0.135-0.005c23.052-1.657,47.278-1.658,70.332-0.001    c0.046,0.003,0.092,0.002,0.138,0.005c35.759,2.572,68.007,9.022,91.588,18.555c5.571,2.252,9.171,7.632,9.171,13.706v29.079    c0,6.075-3.601,11.455-9.174,13.707c-20.667,8.35-47.987,14.334-78.488,17.417c-0.055,0.004-0.111,0.002-0.166,0.008    c-16.02,1.62-32.128,2.376-48.229,2.376c-16.106,0-32.22-0.751-48.245-2.377c-0.056-0.006-0.112-0.004-0.168-0.008    c-30.494-3.084-57.807-9.067-78.47-17.416C123.56,250.002,119.959,244.622,119.959,238.547z M224.12,286.067    c10.617,0.675,21.26,0.988,31.895,0.988c13.893,0,27.799-0.54,41.644-1.706c0.028,2.01,0.043,3.913,0.047,5.766    c0.098,47.551-5.15,91.384-15.631,131.042c-5.754,21.773-13.297,43.119-22.926,63.487c-1.143,2.419-2.197,4.555-3.134,6.395    c-0.938-1.842-1.995-3.982-3.14-6.407c-9.598-20.326-17.149-41.576-22.888-63.302c-10.439-39.544-15.698-83.438-15.664-131.226    c0.001-1.836,0.014-3.747,0.039-5.757c0.169,0.014,0.341,0.023,0.51,0.037C217.953,285.644,221.035,285.871,224.12,286.067z     M151.182,401.274c18.335,14.232,40.934,24.465,65.612,29.744c3.084,11.143,6.577,21.949,10.471,32.414    c-36.726-4.789-70.03-18.597-96.924-40.283c-21.171-17.072-36.836-38.08-45.573-61.034l14.776-9.926    c0.77-0.517,1.667-0.807,2.595-0.839l10.715-0.362C119.972,369.971,133.129,387.261,151.182,401.274z M105.489,336.229    c-5.164,0.175-9.872,0.551-14.31,3.509l-15.773,10.595c-3.475,2.334-6.95,4.668-10.425,7.003c-3.69,2.479-8.669-0.988-7.563-5.334    c0,0,17.213-67.65,17.218-67.668c0.866-3.403,5.191-4.909,7.978-2.579c0,0,53.569,44.786,53.57,44.786    c3.455,2.889,1.435,8.601-3.011,8.751C128.082,335.465,109.625,336.089,105.489,336.229z"/>
	</g>
</g>















</svg>
