<svg id="Capa_1" enable-background="new 0 0 512 512" height="512" viewBox="0 0 512 512" width="512" xmlns="http://www.w3.org/2000/svg"><g><g><path d="m156.906 504.5c-12.566 0-22.098-11.469-19.643-23.793 11.054-55.475 60.014-97.282 118.738-97.282s107.684 41.808 118.738 97.282c2.456 12.324-7.076 23.793-19.643 23.793z" fill="#a0c8ff"/></g><g><g><path d="m256.002 43.501c-88.366 0-160 71.634-160 160v15.245h320v-15.246c0-88.365-71.634-159.999-160-159.999z" fill="#86b6ef"/></g></g><g><path d="m349.3 46.145c-5.184-6.366-28.793-6.322-50.962-4.708-16.025-19.896-32.501-33.937-42.336-33.937s-26.312 14.041-42.336 33.937c-22.169-1.613-45.778-1.657-50.962 4.708-10.298 12.646-39.202 180.855 93.298 180.855s103.596-168.209 93.298-180.855z" fill="#a0c8ff"/></g><g><circle cx="401.129" cy="251.131" fill="#a0c8ff" r="36.081"/></g><g><circle cx="110.871" cy="251.131" fill="#a0c8ff" r="36.081"/></g><g><path d="m256.071 436.128c.914 0 1.813-.007 2.729-.021 28.356-.422 55.681-7.209 80.334-19.629-21.687-20.49-50.942-33.054-83.133-33.054-58.724 0-107.684 41.808-118.738 97.283-2.456 12.324 7.076 23.793 19.642 23.793h23.877c0-28.363 9.757-54.442 26.093-75.077 15.86 4.421 32.375 6.705 49.196 6.705z" fill="#86b6ef"/></g><g><path d="m241.877 138.538c-40.954-11.542-98.331 6.06-126.419 76.799-2.956 11.641-4.508 23.843-4.455 36.416.337 79.84 67.37 145.549 147.202 144.36 79.065-1.178 142.797-65.638 142.797-144.984 0-12.353-1.549-24.343-4.456-35.792-28.088-70.738-85.465-88.341-126.419-76.799-9.253 2.608-18.997 2.608-28.25 0z" fill="#dfecff"/></g><g><path d="m280.998 393.973c-68.164-11.849-119.996-71.291-119.996-142.845 0-47.344 22.696-89.38 57.796-115.841-37.302-.373-80.232 21.854-103.34 80.05-2.956 11.641-4.508 23.843-4.455 36.416.337 79.84 67.37 145.549 147.202 144.36 7.762-.116 15.373-.85 22.793-2.14z" fill="#a0c8ff"/></g><g><path d="m363.863 348.327c3.214 2.612 7.938 2.123 10.55-1.091 12.652-15.57 22.024-33.488 27.708-52.549 23.572-.531 42.589-19.858 42.589-43.556 0-15.856-8.514-29.757-21.208-37.383v-10.248c0-49.055-21.347-95.349-58.601-127.255-2.311-17.465-6.318-30.577-9.786-34.835-4.28-5.258-14.057-10.235-53.427-7.72-11.5-13.819-30.654-33.69-45.686-33.69s-34.186 19.871-45.687 33.69c-39.376-2.515-49.146 2.462-53.427 7.719-3.467 4.258-7.474 17.368-9.784 34.83-14.797 12.67-27.175 27.648-36.795 44.561-2.048 3.601-.789 8.179 2.812 10.227 1.171.666 2.444.982 3.701.982 2.608 0 5.145-1.364 6.526-3.793 6.125-10.768 13.479-20.676 21.953-29.609-.53 17.024.775 35.882 5.247 53.881-16.54 13.55-30.12 32.206-39.978 55.069-2.408.017-4.767.234-7.068.628v-4.685c0-16.846 2.727-33.394 8.103-49.184 1.335-3.921-.761-8.182-4.682-9.517-3.923-1.336-8.183.761-9.518 4.682-5.908 17.35-8.903 35.524-8.903 54.019v10.246c-12.696 7.625-21.212 21.527-21.212 37.385 0 23.714 19.042 43.051 42.636 43.557 7.329 24.24 20.779 46.505 39.588 64.958 13.655 13.397 29.264 23.934 46.119 31.334-33.639 17.967-58.188 50.433-65.726 88.261-1.604 8.047.471 16.312 5.691 22.675 5.257 6.408 13.022 10.083 21.307 10.083h198.191c8.284 0 16.05-3.675 21.307-10.083 5.221-6.364 7.295-14.628 5.691-22.675-7.504-37.656-31.954-70.094-65.428-88.1 12.595-5.474 24.489-12.702 35.441-21.601 3.215-2.612 3.703-7.336 1.091-10.551-2.611-3.214-7.337-3.704-10.55-1.091-24.157 19.63-53.396 30.251-84.556 30.715-36.649.56-71.439-13.545-98.074-39.675-26.618-26.113-41.362-60.639-41.517-97.217-.049-11.523 1.333-22.983 4.106-34.07 26.068-65.134 77.624-83.056 117.233-71.895 10.572 2.979 21.748 2.979 32.318 0 39.61-11.166 91.165 6.761 117.233 71.895 2.726 10.896 4.107 22.155 4.107 33.477 0 31.487-10.913 62.259-30.729 86.647-2.609 3.216-2.121 7.939 1.094 10.552zm-107.824 55.301c.757 0 1.519-.006 2.277-.017 13.027-.194 25.75-1.99 37.984-5.317 36.311 13.791 63.5 45.819 71.084 83.879.723 3.624-.217 7.353-2.577 10.23-2.396 2.921-5.936 4.597-9.71 4.597h-198.191c-3.774 0-7.313-1.675-9.71-4.597-2.36-2.877-3.3-6.606-2.577-10.23 7.613-38.202 34.868-70.215 71.32-83.966 12.939 3.577 26.397 5.422 40.1 5.421zm-173.749-152.497c0-14.136 10.318-25.901 23.816-28.176-1.77 9.472-2.645 19.132-2.604 28.83.04 9.328.942 18.532 2.651 27.531-13.521-2.256-23.863-14.033-23.863-28.185zm323.564 28.183c1.745-9.253 2.648-18.689 2.648-28.185 0-9.476-.877-18.915-2.607-28.174 13.498 2.276 23.815 14.041 23.815 28.176 0 14.15-10.338 25.924-23.856 28.183zm-137.761-147.994c-7.909 2.229-16.271 2.229-24.182 0-24.042-6.777-50.144-3.903-73.495 8.091-2.249 1.155-4.456 2.397-6.626 3.709-8.918-42.925 1.164-86.364 4.697-92.168.95-.649 8.427-4.67 44.635-2.035 2.438.184 4.841-.858 6.385-2.775 18.401-22.849 31.907-31.142 36.495-31.142s18.094 8.293 36.495 31.142c1.544 1.917 3.945 2.957 6.385 2.775 36.205-2.635 43.684 1.386 44.635 2.035 3.533 5.8 13.616 49.24 4.697 92.168-2.17-1.312-4.377-2.553-6.626-3.709-23.352-11.994-49.452-14.869-73.495-8.091zm93.363 21.169c4.472-17.997 5.778-36.852 5.248-53.874 26.741 28.201 41.798 65.572 41.798 104.886v4.686c-2.301-.394-4.66-.612-7.068-.629-9.859-22.863-23.438-41.519-39.978-55.069z"/><path d="m256.002 321.619c-4.188 0-7.583 3.395-7.583 7.583s3.395 7.583 7.583 7.583 7.583-3.395 7.583-7.583-3.395-7.583-7.583-7.583z"/><path d="m284.563 260.892c7.512-7.912 11.336-18.28 10.771-29.197-1.064-20.497-17.985-36.877-38.521-37.291-19.905-.38-37.061 14.168-39.814 33.891-.252 1.803-.38 3.648-.38 5.485 0 4.142 3.357 7.5 7.5 7.5s7.5-3.358 7.5-7.5c0-1.145.079-2.292.235-3.411 1.681-12.039 12.019-20.974 24.157-20.974.166 0 .333.001.499.005 12.712.256 23.186 10.391 23.844 23.072.352 6.767-2.017 13.192-6.668 18.091-4.654 4.902-10.935 7.602-17.683 7.602-4.143 0-7.5 3.358-7.5 7.5v33.341c0 4.142 3.357 7.5 7.5 7.5s7.5-3.358 7.5-7.5v-26.546c8.002-1.528 15.302-5.505 21.06-11.568z"/></g></g></svg>